<svg t="1735794889835" class="icon" viewBox="0 0 1024 1024" version="1.1" xmlns="http://www.w3.org/2000/svg" p-id="1556"
     width="14" height="14">
    <path d="M1003.186154 527.414611l0.123647-0.206078c0.680056-1.009781 1.277682-2.040169 1.792876-3.070558 0.329724-0.659449 0.638841-1.318897 0.927349-1.998953 0.123647-0.329724 0.267901-0.638841 0.37094-0.92735 0.74188-1.978346 1.277682-3.977299 1.586798-5.935037 2.246247-14.466653-6.244154-28.170819-20.195613-32.580881l-346.581445-110.004267-102.915194-349.796257c-2.575971-10.571785-10.716039-18.8355-21.226001-21.555725a29.345462 29.345462 0 0 0-29.015738 8.531616 29.619545 29.619545 0 0 0-7.707305 17.516603l-108.7678 341.388287-347.405756 102.235138a29.508263 29.508263 0 0 0-22.132743 19.927712c-4.925257 15.476434 3.668183 32.065687 19.144617 36.990944l346.43719 109.69515 101.884806 346.210505c0.494586 3.400282 1.524975 6.615094 3.091165 9.582612 3.503321 6.594486 9.335319 11.581566 16.486215 14.03389 0.226685 0.082431 0.453371 0.164862 0.659448 0.226686l0.309117 0.103038c0.412155 0.144254 0.844918 0.247293 1.257074 0.350333l0.515194 0.144254c2.266854 0.577018 4.574925 0.865526 6.759348 0.865526H499.202576c2.843872 0 5.625921-0.391548 8.366754-1.19525 9.685651-2.967519 17.08384-10.592393 19.721634-20.257437l109.32421-345.489233L987.112095 539.140431c6.512055-1.875307 12.220407-6.038076 16.074059-11.72582z m-389.898973 60.277721c-2.143208 0.020608-4.265808 0.288509-6.305978 0.762488-10.592393 2.49354-18.897323 10.571785-21.658764 20.896277l-85.460414 269.116844-79.978749-272.063755c-0.55641-1.895915-1.298289-3.750614-2.205031-5.481666-0.103039-0.18547-0.18547-0.350332-0.288509-0.535802l-0.103038-0.206078c-0.309117-0.55641-0.638841-1.092212-0.968566-1.607406-0.164862-0.247293-0.329724-0.515194-0.618233-0.906742-0.309117-0.453371-0.638841-0.906742-0.989172-1.339505-0.226685-0.288509-0.473979-0.577018-0.700665-0.844918-0.350332-0.432763-0.721272-0.824311-1.215858-1.339505-0.206078-0.226685-0.432763-0.453371-0.638841-0.659449-0.412155-0.412155-0.844918-0.783095-1.277681-1.174642l-0.164863-0.144255c-0.18547-0.164862-0.391548-0.329724-0.577017-0.494586-0.473979-0.391548-0.968565-0.74188-1.648621-1.236466-0.18547-0.144254-0.391548-0.288509-0.55641-0.391548-0.494586-0.329724-1.030388-0.638841-1.545583-0.947957l-0.206078-0.123647c-0.206078-0.123647-0.412155-0.247293-0.63884-0.37094l-0.865527-0.432763-0.288508-0.123646c-1.442544-0.700664-2.802656-1.236466-4.16277-1.648622L130.859328 500.933628l271.136406-79.793278c10.077199-2.369893 18.237875-9.953552 21.32904-19.804065l85.645884-269.590823 80.184826 272.702596c3.029342 10.386315 11.478527 18.237875 22.07092 20.525337l266.932421 84.842182-264.871644 77.876755z"
          fill="#1296db" p-id="1557"></path>
    <path d="M37.320668 178.545703h68.252928v68.170497c0 9.78869 3.812437 19.000362 10.736648 25.924573 6.92421 6.92421 16.135882 10.736647 25.924572 10.736647s19.000362-3.812437 25.924572-10.736647c6.92421-6.92421 10.736647-16.135882 10.736647-25.924573V178.545703h68.191105c20.216221 0 36.66122-16.444999 36.66122-36.661219s-16.444999-36.66122-36.66122-36.66122H178.896035V37.052767C178.896035 16.836547 162.451036 0.391548 142.255424 0.391548c-20.216221 0-36.66122 16.444999-36.66122 36.661219v68.170497H37.320668C17.104448 105.223264 0.659449 121.668263 0.659449 141.884484S17.104448 178.545703 37.320668 178.545703zM987.421212 845.598551h-68.252929v-68.170497c0-20.216221-16.444999-36.66122-36.640611-36.66122-20.216221 0-36.66122 16.444999-36.66122 36.66122v68.170497h-68.191105c-20.216221 0-36.66122 16.444999-36.661219 36.66122 0 20.216221 16.444999 36.640612 36.661219 36.640611h68.191105v68.191105c0 9.78869 3.812437 19.000362 10.736647 25.924573 6.92421 6.92421 16.135882 10.736647 25.924573 10.736647s19.000362-3.812437 25.924572-10.736647a36.393319 36.393319 0 0 0 10.736647-25.924573V918.900382h68.252928c20.216221 0 36.66122-16.444999 36.66122-36.640611-0.020608-20.216221-16.465607-36.66122-36.681827-36.66122zM1017.034574 539.078607l0.164863-0.247293c0.824311-1.257074 1.586798-2.534755 2.205031-3.791829 0.412155-0.803703 0.803703-1.628014 1.174642-2.534756a37.668939 37.668939 0 0 0 2.431717-8.511008c2.802656-18.011189-7.769129-35.074421-25.141477-40.576695l-342.93387-108.850232-101.802375-345.942604A36.611761 36.611761 0 0 0 526.755162 1.978346a36.599396 36.599396 0 0 0-36.125418 10.613 36.856993 36.856993 0 0 0-9.520788 20.958101l-107.366473 336.998832L30.293419 471.629382a36.758076 36.758076 0 0 0-27.243469 24.729322c-6.141115 19.268263 4.554317 39.937855 23.843187 46.058362l342.789616 108.541115 100.64834 342.047736c0.638841 4.018515 1.916522 7.85156 3.791829 11.396095 4.368847 8.222499 11.643389 14.425438 20.607768 17.495996l0.968565 0.350332c0.55641 0.18547 1.112819 0.329724 1.566191 0.453371l0.638841 0.18547c2.802656 0.721272 5.749567 1.092212 8.407969 1.092211h0.020608l0.535802 0.020608h0.206077c3.503321 0 6.986033-0.494586 10.468747-1.504367 12.034937-3.668183 21.184786-13.044717 24.543852-25.100262l108.128959-341.697404 346.80813-101.967236c8.119461-2.390501 15.229141-7.604266 20.010143-14.652124z m-397.008653 49.046489c-2.30807 0.103039-4.61614 0.412155-6.821172 0.927349-13.127148 3.091165-23.431032 13.003502-26.913745 25.883357L508.002093 861.404709l-73.301831-249.39521a36.867297 36.867297 0 0 0-2.740834-6.821171c-0.144254-0.267901-0.288509-0.515194-0.412155-0.74188l-0.103039-0.18547c-0.391548-0.700664-0.803703-1.38072-1.174643-1.957738-0.206078-0.329724-0.432763-0.638841-0.783095-1.154035-0.391548-0.55641-0.803703-1.112819-1.236466-1.648621a34.608686 34.608686 0 0 0-2.349285-2.67901c-0.288509-0.288509-0.55641-0.597625-0.865527-0.886134-0.515194-0.494586-1.050996-0.989173-1.56619-1.421936l-0.164862-0.144255c-0.267901-0.226685-0.535802-0.473979-0.762488-0.659448-0.577018-0.473979-1.195251-0.92735-1.895914-1.421936-0.329724-0.247293-0.638841-0.473979-0.865527-0.618233-0.618233-0.412155-1.277682-0.803703-1.813483-1.11282l-0.288509-0.18547c-0.267901-0.164862-0.55641-0.329724-0.886134-0.515194-0.391548-0.206078-0.783095-0.412155-1.19525-0.597625l-0.206078-0.103039c-1.772268-0.865526-3.462105-1.524975-5.110727-2.040169l-246.881062-78.309519 248.323606-73.075146c12.426484-3.008734 22.524291-12.426484 26.357336-24.585067l78.515596-247.107748 73.528517 250.054658a36.574667 36.574667 0 0 0 27.119823 25.471202L861.404709 517.151942l-241.378788 70.973154z"
          fill="#1296db" p-id="1558"></path>
</svg>
